<svg display="none" xmlns="http://www.w3.org/2000/svg">

    <symbol id="logo" viewBox="0 0 115 25">
        <g clip-path="url(#clip0_588_16)">
        <path d="M24.922 9.84247C23.6633 9.84247 22.6562 10.7775 22.6562 12.0078C22.6562 13.2381 23.6633 14.1732 24.922 14.1732C26.1808 14.1732 27.1878 13.2381 27.1878 12.0078C27.1374 10.8267 26.1304 9.84247 24.922 9.84247Z" fill="#7D7D7D"/>
        <path d="M52.0626 7.18491C51.3073 4.28137 49.4947 2.26365 46.6751 1.13176C45.4667 0.639636 44.1576 0.491998 42.8988 0.442786C40.9352 0.393573 38.9212 0.393573 36.9575 0.442786C36.5547 0.442786 36.5547 0.442786 36.5547 0.836486C36.5547 3.83845 36.5547 6.79121 36.5547 9.79318C36.5547 12.7951 36.5547 15.7971 36.5547 18.7991C36.5547 18.8975 36.5547 18.9467 36.5547 19.0451C36.5547 19.1436 36.605 19.1436 36.6554 19.1436C36.7561 19.1436 36.8064 19.1436 36.9071 19.1436C37.2596 19.1436 37.5617 19.1436 37.9141 19.1436H40.8345C40.8848 19.1436 40.9352 19.1436 40.9855 19.1436C42.2443 19.1436 43.8555 19.0944 44.359 19.0451C45.6681 18.8975 46.9268 18.553 48.0345 17.864C50.9045 16.1416 52.3143 13.5333 52.5157 10.2853C52.5157 9.25184 52.3647 8.21838 52.0626 7.18491ZM47.1282 13.2381C46.2723 14.4192 45.0639 15.1574 43.6037 15.3542C43.2513 15.4034 41.7408 15.4034 40.6331 15.4034C40.6331 11.8109 40.6331 8.21838 40.6331 4.57664C40.6331 4.52743 40.6331 4.42901 40.6331 4.37979C40.6331 4.08452 40.6331 4.08452 40.9352 4.08452C41.338 4.08452 41.7408 4.13373 42.1436 4.13373C42.7478 4.18294 43.352 4.18294 43.9562 4.33058C46.6247 4.87192 48.0849 6.88964 48.2863 9.15341C48.4373 10.7282 48.0345 12.057 47.1282 13.2381Z" fill="#7D7D7D"/>
        <path d="M12.5374 15.4036H10.1709C10.0702 15.4036 10.0199 15.4036 9.91917 15.4036C9.61707 15.4036 9.26462 15.4036 8.96252 15.3544C6.0422 14.8623 4.33029 12.6477 4.12889 10.3347C4.02819 8.75992 4.43099 7.38197 5.48835 6.20087C6.49535 5.06898 7.80446 4.47843 9.36532 4.33079C10.0199 4.28158 10.7248 4.28158 11.3793 4.18315C12.5374 4.03551 13.3933 3.44496 13.8465 2.4115C14.0982 1.87016 14.2493 1.2304 14.4003 0.689057C14.4507 0.541419 14.4003 0.492207 14.2493 0.492207C14.1989 0.492207 14.1486 0.492207 14.0982 0.492207C12.5877 0.492207 11.1276 0.492207 9.61707 0.492207C8.66042 0.492207 7.65341 0.639844 6.64641 0.984333C4.22959 1.77173 2.36663 3.14969 1.15823 5.41347C0.604374 6.49614 0.201571 7.62803 0.0505206 8.80914C-0.05018 9.69496 -0.05018 10.63 0.151221 11.5158C0.604374 13.632 1.61138 15.4528 3.27294 16.88C5.08555 18.4056 7.20026 19.1438 9.56672 19.2422C10.5234 19.2914 11.48 19.2914 12.4367 19.2914H12.5374C13.5947 19.2914 14.501 18.4056 14.501 17.3721C14.501 16.2402 13.6451 15.4036 12.5374 15.4036Z" fill="#7D7D7D"/>
        <path d="M33.0288 7.08649C33.0288 6.39752 32.9281 5.70854 32.777 5.01956C32.2735 3.00185 31.1155 1.52547 29.2022 0.688856C28.3462 0.295155 27.4399 0.147517 26.4832 0.0983047C26.4329 0.0983047 26.3825 0.0983047 26.3322 0.0983047H23.4622C23.4119 0.0983047 23.3615 0.0983047 23.3112 0.0983047C22.3545 0.0983047 21.4482 0.295155 20.5922 0.688856C18.6789 1.57468 17.4705 3.05106 17.0174 5.01956C16.8663 5.70854 16.7656 6.39752 16.7656 7.08649C16.7656 11.0235 16.7656 14.9605 16.7656 18.8483C16.7656 18.8975 16.7656 18.9467 16.7656 18.9959C16.7656 19.0944 16.816 19.1928 16.9167 19.1928C16.967 19.1928 17.0174 19.1928 17.0677 19.1928C18.2258 19.1928 19.3838 19.1928 20.5419 19.1928C20.5922 19.1928 20.6426 19.1928 20.6929 19.1928C20.7936 19.1928 20.844 19.1436 20.844 19.0452V6.44673C20.844 4.97035 22.1028 3.74004 23.6133 3.74004H26.0804C26.7853 3.74004 27.4399 3.9861 27.893 4.42901C27.9434 4.42901 27.9434 4.47823 27.9937 4.47823C28.0441 4.52744 28.0944 4.57665 28.1448 4.62586C28.1951 4.67508 28.1951 4.72429 28.2455 4.7735C28.5979 5.21641 28.8497 5.80697 28.8497 6.44673V12.7459C28.8497 14.7637 28.8497 16.7814 28.8497 18.7991V19.0452C28.8497 19.1436 28.9 19.242 29.0007 19.242C29.0511 19.242 29.1014 19.242 29.1518 19.242C30.3099 19.242 31.4679 19.242 32.626 19.242C32.6763 19.242 32.7267 19.242 32.777 19.242C32.9281 19.242 32.9281 19.1928 32.9281 19.0452C32.9281 18.9959 32.9281 18.9467 32.9281 18.8975C33.0288 14.9605 33.0288 11.0235 33.0288 7.08649Z" fill="#7D7D7D"/>
        <path d="M66.6115 7.13579C66.108 6.74209 65.5541 6.44682 64.9499 6.24997C62.3317 5.31493 59.9149 5.65941 57.8002 7.38186C55.9372 8.90745 55.182 10.9252 55.4337 13.2874C55.6351 15.3543 56.5918 16.9783 58.3037 18.1594C59.8646 19.2421 61.5765 19.5866 63.4394 19.3405C65.2017 19.0945 66.7122 18.3563 67.9206 17.0767C68.122 16.8307 68.122 16.8799 67.9206 16.6338C67.115 15.6496 65.6548 15.2559 64.4464 15.6496C64.245 15.6988 64.0436 15.7972 63.7919 15.8464C62.231 16.3386 60.9219 15.9448 59.7639 14.813C59.7135 14.7637 59.6128 14.6653 59.6128 14.5177C59.6632 14.5177 59.7135 14.5177 59.7135 14.4685C62.6842 13.7795 65.7052 13.1397 68.6758 12.4508C68.978 12.4015 68.978 12.4015 68.978 12.0571C68.978 11.5157 68.9276 11.0236 68.7766 10.4822C68.4745 9.15351 67.8199 7.97241 66.6115 7.13579ZM65.252 11.1712C64.0436 11.4665 62.8856 11.7126 61.6772 12.0078C60.8212 12.2047 59.9149 12.4015 59.0589 12.5984C59.0086 12.5984 58.9582 12.6476 58.9079 12.5984C58.8575 12.2539 58.9079 11.9586 59.0086 11.6141C59.3107 10.433 60.0156 9.54721 61.224 9.20272C61.8786 9.00587 62.6338 8.95666 63.2884 9.1043C64.3457 9.30115 65.0003 9.99012 65.3527 10.9744C65.5038 11.122 65.4031 11.122 65.252 11.1712Z" fill="#464646"/>
        <path d="M114.998 12.3032C114.998 11.6634 114.998 11.0237 114.947 10.3839C114.796 8.56305 113.89 7.18509 112.178 6.34848C110.919 5.70872 109.509 5.61029 108.15 5.85635C105.733 6.29927 103.971 8.16935 103.921 10.5808C103.87 11.9095 103.87 13.2382 103.921 14.567C103.921 15.9942 103.921 17.3721 103.921 18.7993C103.921 19.0453 103.921 19.0453 104.172 19.0453C105.129 19.0453 106.086 19.0453 107.042 19.0453C107.445 19.0453 107.395 19.0945 107.395 18.7008C107.395 16.3879 107.395 14.0749 107.395 11.7619C107.395 11.2697 107.445 10.7776 107.596 10.2855C107.798 9.64572 108.2 9.20281 108.905 9.05517C109.157 9.00596 109.409 9.00596 109.661 9.00596C110.466 9.05517 110.97 9.49809 111.171 10.2363C111.322 10.7284 111.372 11.1713 111.372 11.6634C111.372 13.9764 111.372 16.2894 111.372 18.6516C111.372 19.0453 111.322 18.9961 111.725 18.9961C112.682 18.9961 113.689 18.9961 114.645 18.9961C114.947 18.9961 114.947 19.0453 114.947 18.7008C114.947 18.6516 114.947 18.6516 114.947 18.6024C114.998 16.5847 114.998 14.4193 114.998 12.3032Z" fill="#464646"/>
        <path d="M78.9459 12.5494C78.5431 12.2541 78.1402 12.0081 77.7374 11.762C77.2339 11.5159 76.6801 11.2699 76.1766 11.0238C75.8745 10.8762 75.5724 10.7285 75.2703 10.5809C75.0689 10.4825 74.8675 10.3348 74.7164 10.138C74.4647 9.7935 74.5654 9.35059 74.9178 9.15374C75.1696 9.0061 75.4213 8.95689 75.6731 9.0061C75.9248 9.05531 76.1262 9.15374 76.3276 9.25216C76.8311 9.54744 77.385 9.7935 77.8885 10.0396C78.4423 10.2856 79.0466 10.3841 79.6508 10.2364C80.2046 10.0888 80.1543 10.1872 80.0536 9.64586C80.0536 9.59665 80.0536 9.59665 80.0536 9.54744C79.7011 8.07106 78.8955 7.0376 77.4353 6.49626C76.2269 6.05334 74.9682 5.95492 73.7094 6.29941C72.4506 6.59468 71.5443 7.33287 71.1415 8.56319C70.9401 9.15374 70.9401 9.7935 71.0408 10.4333C71.1415 11.2207 71.5443 11.762 72.1989 12.2541C72.4003 12.4018 72.6521 12.5494 72.9038 12.6478C73.5584 12.9431 74.2129 13.2876 74.8675 13.5829C75.3206 13.7797 75.7234 14.0258 76.1262 14.3211C76.4787 14.5671 76.5794 14.9116 76.4787 15.3053C76.378 15.7482 76.1262 16.0435 75.6731 16.1419C75.0689 16.2896 74.515 16.1911 74.0619 15.8467C73.8101 15.699 73.6087 15.5022 73.357 15.4037C72.501 14.8624 71.2422 15.0592 70.5373 15.7974C70.3359 15.9943 70.2856 16.1911 70.3863 16.4372C70.638 16.9785 70.9401 17.4215 71.3933 17.8152C72.5514 18.7502 73.8605 19.2915 75.371 19.2915C76.4787 19.2915 77.4857 18.9963 78.4424 18.5533C79.0466 18.2581 79.4997 17.8152 79.8522 17.2246C80.255 16.4864 80.406 15.699 80.3053 14.9116C80.1543 13.8781 79.7515 13.0907 78.9459 12.5494Z" fill="#464646"/>
        <path d="M86.2975 7.52978C86.2975 7.13608 86.2975 6.69316 86.2975 6.29946C86.2975 6.10261 86.2975 6.0534 86.0458 6.0534C85.4416 6.0534 84.8877 6.0534 84.2835 6.0534C83.8304 6.0534 83.4276 6.0534 82.9744 6.0534C82.7227 6.0534 82.7227 6.0534 82.7227 6.29946C82.7227 6.34867 82.7227 6.39789 82.7227 6.4471C82.7227 8.46482 82.7227 10.5317 82.7227 12.5495C82.7227 14.6164 82.7227 16.6833 82.7227 18.7995C82.7227 19.0947 82.7227 19.0947 83.0248 19.0947C83.9814 19.0947 84.9381 19.0947 85.8947 19.0947C86.2975 19.0947 86.2472 19.144 86.2472 18.701C86.2975 14.9609 86.2975 11.2699 86.2975 7.52978Z" fill="#464646"/>
        <path d="M84.485 0.000136262C83.2262 0.0493489 82.2695 0.984388 82.2695 2.16549C82.2695 3.39581 83.2765 4.33085 84.485 4.33085C85.7437 4.33085 86.7507 3.34659 86.7507 2.16549C86.8011 0.984388 85.7437 -0.0490763 84.485 0.000136262Z" fill="#464646"/>
        <path d="M101.756 15.7481C101.756 15.0591 101.756 14.3701 101.756 13.6811C101.756 13.4843 101.756 13.2382 101.756 13.0414C101.756 12.5984 101.706 12.2047 101.706 11.7618C101.706 11.565 101.655 11.3189 101.605 11.1221C101.303 9.25199 100.397 7.82483 98.9364 6.88979C98.4329 6.59451 97.9294 6.29924 97.3252 6.10238C97.0231 6.00396 96.721 5.90553 96.4189 5.85632C95.5126 5.65947 94.5559 5.70868 93.5993 5.85632C92.9951 5.95475 92.4412 6.10238 91.9377 6.34845C91.7867 6.44687 91.5853 6.49609 91.4342 6.59451C90.7797 6.98821 90.2258 7.48034 89.7727 8.07089C88.7657 9.39963 88.3125 10.8268 88.3125 12.3524C88.3125 12.8445 88.3629 13.3858 88.4636 13.878C88.5643 14.5177 88.7657 15.1083 89.0174 15.6496C89.4202 16.437 89.9237 17.126 90.6286 17.6673C91.3335 18.2087 92.1391 18.6024 93.1461 18.8977C93.4482 18.9961 93.8007 19.0453 94.1028 19.0945C94.3545 19.1437 94.6063 19.1437 94.9084 19.1437C96.3685 19.1437 97.6273 18.6024 98.2818 17.815C98.2818 18.1103 98.2818 18.4055 98.2818 18.7008C98.2818 18.8484 98.2819 18.9961 98.2315 19.1437C98.1308 19.7343 97.879 20.2264 97.5266 20.6201C97.3252 20.817 97.1238 20.9646 96.9224 21.1122C96.6706 21.2599 96.4189 21.3583 96.1168 21.4567C95.9154 21.5059 95.714 21.5551 95.5126 21.6044C95.1098 21.7028 94.707 21.7028 94.3042 21.7028C94.1028 21.7028 93.9014 21.7028 93.7 21.6536C93.2972 21.6044 92.844 21.5551 92.4412 21.5059C92.0384 21.4567 91.6356 21.3583 91.1825 21.3091C91.1321 21.3091 91.0314 21.3091 91.0314 21.3091C90.9811 21.3091 90.9811 21.3583 90.9307 21.4567C90.83 21.752 90.7797 22.0473 90.679 22.3918C90.5783 22.8347 90.4272 23.2284 90.3265 23.6713C90.2762 23.8189 90.2258 24.0158 90.1755 24.1634C90.1755 24.2126 90.1755 24.2618 90.1755 24.2618C90.1755 24.3603 90.2258 24.4095 90.3265 24.4095C90.3769 24.4095 90.3769 24.4095 90.4272 24.4587C91.2328 24.7047 91.9881 24.9016 92.7937 25C94.1028 25.1477 95.4622 25.1477 96.7713 24.8524C97.7783 24.6555 98.735 24.311 99.591 23.6713C99.9434 23.376 100.246 23.0807 100.497 22.7855C101.303 21.8504 101.706 20.6693 101.806 19.3898V19.3406C101.756 18.1103 101.706 16.9292 101.756 15.7481ZM95.0594 15.7973C94.707 15.7973 94.4049 15.7481 94.1028 15.6988C93.0958 15.4528 92.3405 14.813 92.0384 13.7796C91.8874 13.2382 91.837 12.6969 91.837 12.2047C91.837 12.0079 91.8874 11.8603 91.8874 11.6634C91.9377 11.4666 91.9377 11.2697 92.0384 11.1221C92.3909 9.99018 93.3475 9.20278 94.5056 9.10435C94.707 9.10435 94.9587 9.10435 95.1601 9.10435H95.2105C95.4119 9.10435 95.6133 9.15357 95.8147 9.20278H95.865C96.0664 9.25199 96.2175 9.35042 96.4189 9.39963C96.4189 9.39963 96.4692 9.39963 96.4692 9.44884C96.6203 9.54727 96.7713 9.64569 96.9224 9.74412L96.9727 9.79333C97.1238 9.89176 97.2748 10.0394 97.3755 10.187C97.3755 10.187 97.3755 10.2362 97.4259 10.2362C97.5266 10.3839 97.6777 10.5315 97.728 10.7284C97.728 10.7284 97.728 10.7284 97.728 10.7776C97.8287 10.9744 97.8791 11.1221 97.9798 11.3189C98.0301 11.5158 98.0804 11.7126 98.1308 11.9587C98.1308 12.0571 98.1308 12.1555 98.1308 12.254C98.1308 13.0414 98.1308 13.7796 98.1812 14.567C97.5266 15.3051 96.3685 15.7973 95.0594 15.7973Z" fill="#464646"/>
        </g>
        <defs>
        <clipPath id="clip0_588_16">
        <rect width="115" height="25" fill="white"/>
        </clipPath>
        </defs>
    </symbol>

    <symbol id="sidebar" viewBox="0 0 28 18">
        <mask id="path-1-inside-1_436_4348" fill="white">
        <path fill-rule="evenodd" clip-rule="evenodd" d="M0 0H28V2H0V0ZM0 8H28V10H0V8ZM28 16H0V18H28V16Z"/>
        </mask>
        <path fill-rule="evenodd" clip-rule="evenodd" d="M0 0H28V2H0V0ZM0 8H28V10H0V8ZM28 16H0V18H28V16Z" fill="#003264"/>
        <path d="M28 0H29V-1H28V0ZM0 0V-1H-1V0H0ZM28 2V3H29V2H28ZM0 2H-1V3H0V2ZM28 8H29V7H28V8ZM0 8V7H-1V8H0ZM28 10V11H29V10H28ZM0 10H-1V11H0V10ZM0 16V15H-1V16H0ZM28 16H29V15H28V16ZM0 18H-1V19H0V18ZM28 18V19H29V18H28ZM28 -1H0V1H28V-1ZM29 2V0H27V2H29ZM0 3H28V1H0V3ZM-1 0V2H1V0H-1ZM28 7H0V9H28V7ZM29 10V8H27V10H29ZM0 11H28V9H0V11ZM-1 8V10H1V8H-1ZM0 17H28V15H0V17ZM1 18V16H-1V18H1ZM28 17H0V19H28V17ZM27 16V18H29V16H27Z" fill="#003264" mask="url(#path-1-inside-1_436_4348)"/>
    </symbol>
    
    <symbol id="vk" viewBox="0 0 21 12">
        <path d="M18.2106 7.361C18.8733 7.93628 19.5757 8.47514 20.1712 9.10625C20.4332 9.38418 20.6829 9.67667 20.8736 10.0007C21.1439 10.4631 20.901 10.9729 20.4318 11.0008L17.5136 10.9996C16.7618 11.0554 16.1622 10.7872 15.656 10.3321C15.2526 9.96795 14.878 9.58201 14.4898 9.20456C14.3306 9.05285 14.1646 8.906 13.9657 8.79312C13.5678 8.56496 13.2221 8.63413 12.9943 9.00309C12.7624 9.37568 12.7103 9.78833 12.687 10.2058C12.6554 10.8127 12.4483 10.9729 11.7582 10.9996C10.2846 11.0627 8.88522 10.8649 7.58595 10.207C6.44034 9.62691 5.5513 8.80769 4.7775 7.88045C3.27106 6.07694 2.11859 4.09381 1.08137 2.05486C0.848136 1.59609 1.01963 1.34729 1.59175 1.34001C2.54391 1.32302 3.49469 1.32544 4.44685 1.34001C4.83512 1.34243 5.09031 1.53905 5.23986 1.8631C5.75435 2.9821 6.38409 4.04769 7.17435 5.0344C7.38427 5.29777 7.59967 5.56113 7.90562 5.74561C8.24313 5.95072 8.50106 5.88154 8.66021 5.55021C8.76174 5.33782 8.80564 5.11086 8.82896 4.88391C8.90442 4.10474 8.91403 3.32678 8.78232 2.55246C8.7 2.06821 8.3913 1.75387 7.84525 1.66163C7.56674 1.61672 7.60927 1.52327 7.74373 1.38249C7.97833 1.14097 8.19785 0.989258 8.63826 0.989258H11.9338C12.4524 1.07907 12.5676 1.28539 12.639 1.7478L12.6417 4.98586C12.6362 5.16548 12.7432 5.69585 13.1068 5.81479C13.399 5.89853 13.5911 5.69221 13.7654 5.52958C14.5529 4.78803 15.1154 3.91298 15.6203 3.00637C15.8439 2.60707 16.036 2.19443 16.2212 1.77935C16.3598 1.47351 16.5766 1.3218 16.9662 1.32787L20.1396 1.3303C20.2329 1.3303 20.3289 1.33151 20.4195 1.34608C20.9546 1.42496 21.1 1.62886 20.9353 2.09127C20.676 2.81704 20.1698 3.42023 19.6745 4.02585C19.1449 4.67273 18.5797 5.29898 18.0542 5.95072C17.574 6.54542 17.611 6.84519 18.2106 7.361Z"/>
    </symbol>
  
    <symbol id="ok" viewBox="0 0 11 18">
        <path d="M4.59836 12.7964C3.1782 12.6541 1.89771 12.3181 0.801413 11.4943C0.665383 11.3918 0.52494 11.293 0.400806 11.1786C-0.0790409 10.7358 -0.12739 10.2287 0.252304 9.70612C0.577127 9.25893 1.1224 9.1393 1.68916 9.39607C1.7989 9.44584 1.90347 9.50796 2.00362 9.57469C4.04676 10.9234 6.8535 10.9607 8.90431 9.63533C9.1075 9.48566 9.32468 9.36363 9.57641 9.30133C10.0658 9.18059 10.5223 9.35331 10.7849 9.76473C11.085 10.2346 11.0812 10.6932 10.7115 11.058C10.1443 11.6173 9.46225 12.0219 8.7044 12.3043C7.98779 12.5712 7.20288 12.7055 6.42604 12.7948C6.54326 12.9173 6.59852 12.9776 6.67181 13.0484C7.72667 14.0666 8.78613 15.0806 9.83753 16.102C10.1957 16.45 10.2706 16.8816 10.0733 17.2863C9.85768 17.7287 9.37495 18.0198 8.90163 17.9886C8.60175 17.9687 8.36787 17.8253 8.16008 17.6242C7.36405 16.8546 6.55305 16.0993 5.77313 15.3151C5.54616 15.0871 5.43699 15.1302 5.23668 15.3282C4.43585 16.1203 3.62197 16.9002 2.8033 17.6757C2.43569 18.0239 1.99825 18.0865 1.57193 17.8876C1.11875 17.6766 0.830384 17.2322 0.85264 16.7855C0.867989 16.4834 1.02263 16.2526 1.23847 16.0456C2.28239 15.0441 3.32344 14.0401 4.36486 13.037C4.43374 12.9702 4.49802 12.8995 4.59836 12.7964Z"/>
        <path d="M5.46351 9.30843C2.92997 9.30014 0.852492 7.28227 0.867266 4.84431C0.881847 2.37945 2.96067 0.3931 5.51915 0.39992C8.08281 0.406556 10.1405 2.42147 10.1277 4.91196C10.1146 7.34494 8.02275 9.31691 5.46351 9.30843ZM7.76604 4.85021C7.76163 3.63971 6.75819 2.67603 5.50073 2.67493C4.23271 2.67364 3.22026 3.65483 3.23005 4.87639C3.23945 6.08228 4.25152 7.03914 5.51243 7.03471C6.76951 7.03047 7.77026 6.06053 7.76604 4.85021Z"/>
    </symbol>

    <symbol id="facebook" viewBox="0 0 9 17">
        <path d="M8.66125 0.127603L6.50108 0.125122C4.0732 0.125122 2.50519 1.74366 2.50519 4.24649V6.14781H0.332683C0.145164 6.14781 -0.0078125 6.30036 -0.0078125 6.49136V9.24473C-0.0078125 9.432 0.145164 9.5858 0.332683 9.5858H2.50519V16.5362C2.50519 16.726 2.65693 16.8748 2.84445 16.8748H5.67945C5.86697 16.8748 6.01871 16.726 6.01871 16.5362V9.5858H8.56009C8.74637 9.5858 8.89935 9.432 8.89935 9.24473V6.49136C8.89935 6.39834 8.86357 6.31276 8.80065 6.24951C8.73527 6.18377 8.65015 6.14781 8.56009 6.14781H6.01871V4.53795C6.01871 3.76279 6.20253 3.37087 7.20551 3.37087H8.66125C8.84877 3.37087 9.00051 3.21708 9.00051 3.02856V0.469913C9.00051 0.280154 8.84877 0.127603 8.66125 0.127603Z"/>
    </symbol>

    <symbol id="inst" viewBox="0 0 16 17">
        <path fill-rule="evenodd" clip-rule="evenodd" d="M15.8894 4.10684C15.6951 2.5137 14.8326 1.50204 13.3246 1.17785C12.6995 1.04303 12.0447 1.00495 11.4022 0.99775C9.47262 0.975108 7.54408 0.983341 5.61554 0.994662C5.11901 0.996721 4.62146 1.03583 4.12802 1.09346C3.13291 1.21079 2.28172 1.60598 1.69884 2.46224C1.26091 3.10444 1.09951 3.83823 1.07278 4.59878C1.02652 5.89346 1.01213 7.18917 0.984375 8.48386C0.994655 8.48386 1.00494 8.48489 1.01419 8.48489C1.01419 9.28146 1.00082 10.0791 1.0183 10.8746C1.03269 11.5477 1.04914 12.2249 1.12624 12.8917C1.31025 14.4859 2.17892 15.4965 3.68803 15.8218C4.31408 15.9566 4.96892 15.9947 5.61143 16.0029C7.53071 16.0245 9.45103 16.0173 11.3724 16.005C11.8761 16.0029 12.3839 15.9679 12.8866 15.9062C14.4739 15.7127 15.4813 14.8471 15.8051 13.3333C15.9398 12.7065 15.9778 12.0489 15.985 11.4046C16.0076 9.47802 16.0004 7.55247 15.9891 5.62588C15.984 5.11953 15.9501 4.6101 15.8894 4.10684ZM8.50321 13.2211C5.92497 13.219 3.80317 11.0897 3.80111 8.50341C3.79905 5.91713 5.91777 3.78574 8.49704 3.77957C11.0753 3.77442 13.2022 5.89655 13.2115 8.48386C13.2207 11.0804 11.0907 13.2231 8.50321 13.2211ZM13.3996 4.70272C12.8085 4.70787 12.2965 4.20152 12.2914 3.60461C12.2852 3.00461 12.7838 2.50238 13.3852 2.50032C13.9938 2.49724 14.4831 2.98197 14.4862 3.59123C14.4903 4.19741 14 4.69758 13.3996 4.70272ZM8.53919 5.44475C6.84915 5.42725 5.48087 6.76928 5.46031 8.46121C5.44078 10.1573 6.7741 11.5322 8.46003 11.5559C10.1604 11.5785 11.5379 10.2303 11.5523 8.52708C11.5667 6.83206 10.2251 5.46121 8.53919 5.44475Z"/>
    </symbol>

    <symbol id="progress" viewBox="0 0 66 62">
        <path d="M65.6292 11.4774L61.9711 6.81041L65.7427 1.90268C66.026 1.5339 66.062 1.05079 65.8342 0.651403C65.6072 0.251216 65.1559 0 64.6632 0H50.5421C49.0993 0 47.9248 1.13935 47.9248 2.5388V3.0324C47.9239 3.0485 47.9195 3.06301 47.9195 3.07911V21.5473H43.8453C40.3078 21.5473 37.431 24.3325 37.431 27.7554V33.1366C36.0585 31.8499 34.1943 31.0535 32.1383 31.0535C27.9374 31.0535 24.5195 34.3678 24.5195 38.4413V43.192C23.192 42.0253 21.4368 41.307 19.5075 41.307C15.3849 41.307 12.0313 44.5592 12.0313 48.5571V51.5871C10.8708 50.7086 9.41482 50.1796 7.83212 50.1796H6.84063C3.06819 50.1796 0.000457764 53.1508 0.000457764 56.804V60.7922C0.000457764 61.4597 0.59078 62 1.32011 62H13.3518C13.3579 62 13.3632 61.9984 13.3694 61.9984H25.6676C25.7037 61.9984 25.7371 61.9911 25.7714 61.9887C25.7952 61.9895 25.8172 61.9952 25.8409 61.9952H38.4409C38.4867 61.9952 38.5307 61.9871 38.5747 61.9831C38.6327 61.9903 38.6908 61.9992 38.7515 61.9992H61.8216C62.55 61.9992 63.1412 61.4589 63.1412 60.7914V27.7554C63.1412 24.3325 60.2644 21.5473 56.7286 21.5473H50.5597V13.525H64.6632C64.6694 13.525 64.6747 13.525 64.6808 13.525C65.4101 13.525 66.0005 12.9847 66.0005 12.3172C66.0005 11.9911 65.8597 11.6948 65.6292 11.4774ZM2.63975 56.8048C2.63975 54.4842 4.52421 52.596 6.84063 52.596H7.83212C10.1477 52.596 12.0313 54.4842 12.0313 56.8048V59.5852H2.63887V56.8048H2.63975ZM24.3471 59.5836H14.6714V56.8048V48.5579C14.6714 45.8919 16.8409 43.7234 19.5084 43.7234C22.1767 43.7234 24.3471 45.8919 24.3471 48.5563V59.5836ZM37.1213 59.5804H27.1606V38.4413C27.1606 35.6996 29.3943 33.4691 32.1401 33.4691C34.8867 33.4691 37.1213 35.6996 37.1213 38.4413V59.5804ZM60.5019 27.7562V59.5844H40.0711V27.7562C40.0711 25.6651 41.7647 23.9637 43.8462 23.9637H48.8996C49.0087 23.9903 49.1213 24.0096 49.24 24.0096C49.3588 24.0096 49.4714 23.9911 49.5805 23.9637H56.7286C58.8093 23.9637 60.5019 25.6651 60.5019 27.7562ZM50.565 11.1102V2.5388C50.565 2.46794 50.5922 2.42286 50.5667 2.41562H62.1225L59.5315 5.78621C59.0459 6.42152 58.8559 7.00931 59.5096 7.81613L62.0943 11.111H50.565V11.1102Z"/>
    </symbol>
    
    <symbol id="training" viewBox="0 0 78 74">
        <path d="M38.9645 45.2287C38.2075 45.2287 37.6382 44.9027 36.7777 44.4092L31.8164 41.5746L2.41364 24.7786C1.31195 24.1497 0.584557 23.7345 0.602118 22.7796C0.619678 21.8549 1.36832 21.4612 2.03008 21.1138C2.22786 21.0096 2.46816 20.884 2.74636 20.7236C8.36572 17.4945 14.0581 14.1361 19.5638 10.8892C25.3523 7.47472 31.3358 3.94537 37.2555 0.55319C37.763 0.261898 38.2694 0 38.8739 0C39.4978 0 39.9321 0.26012 40.3924 0.534487L40.7085 0.720664C46.5136 4.04781 52.4139 7.50946 58.1202 10.8562C63.9549 14.2787 69.9883 17.8187 75.9192 21.2145L76.1576 21.349C76.6475 21.6251 77.3185 22.0019 77.3138 22.8589C77.3092 23.7123 76.6327 24.0846 76.1835 24.3305L75.8896 24.4944C69.9689 27.8786 64.076 31.2627 58.1831 34.6469C52.5665 37.8733 46.9489 41.0989 41.3065 44.3254C40.2972 44.9045 39.7297 45.2287 38.9645 45.2287ZM4.46915 22.8455L38.1955 42.1118C38.4931 42.2828 38.8009 42.4592 38.9663 42.5331C39.1456 42.4548 39.4876 42.2579 39.8222 42.0681C45.5321 38.8025 51.1478 35.5778 56.7634 32.3522C62.2811 29.1827 67.7979 26.0141 73.3396 22.8455C67.7739 19.6484 62.1388 16.3435 56.6784 13.1393C50.9786 9.79526 45.0848 6.33807 39.2907 3.01715L38.9312 2.80604C38.9016 2.78733 38.873 2.7704 38.8452 2.75347C38.7981 2.77931 38.7417 2.81049 38.6733 2.84968C32.7684 6.23295 26.7922 9.75874 21.0121 13.1678C15.5988 16.3623 10.0044 19.6627 4.46915 22.8455Z"/>
        <path d="M38.9496 62.0225C38.8239 62.0225 38.6991 62.0065 38.5753 61.9726C38.445 61.937 38.323 61.8844 38.2102 61.8158L9.44055 44.928V28.7127C9.44055 27.9743 10.0616 27.3765 10.8269 27.3765C11.5922 27.3765 12.2133 27.9743 12.2133 28.7127V43.427L37.5642 58.3079V45.3262C37.5642 44.5877 38.1852 43.99 38.9505 43.99C39.7158 43.99 40.3369 44.5877 40.3369 45.3262V58.2963L65.7007 43.4065V28.6931C65.7007 27.9547 66.3218 27.3569 67.0871 27.3569C67.8524 27.3569 68.4735 27.9547 68.4735 28.6931V44.9084L39.8128 61.733C39.7555 61.7766 39.6955 61.8158 39.6335 61.8497C39.4653 61.9414 39.2758 62.0002 39.0744 62.0172C39.0328 62.0207 38.9912 62.0225 38.9496 62.0225Z"/>
        <path d="M63.5094 73.9382H50.5913V60.9789C50.5913 57.821 53.4897 55.251 57.0508 55.251C60.6119 55.251 63.5085 57.8201 63.5085 60.9789V73.9382H63.5094ZM53.364 71.2658H60.7367V60.9789C60.7367 59.2943 59.0832 57.9234 57.0517 57.9234C55.0193 57.9234 53.365 59.2943 53.365 60.9789V71.2658H53.364Z"/>
        <path d="M56.9247 57.0378C56.1594 57.0378 55.5383 56.4401 55.5383 55.7016V34.4729L37.5527 23.8064C36.9011 23.4198 36.6968 22.5967 37.0989 21.9687C37.5009 21.3389 38.3549 21.1456 39.0055 21.5313L58.311 32.9799V55.7025C58.311 56.4401 57.6909 57.0378 56.9247 57.0378Z"/>
    </symbol>

    <symbol id="responsibility" viewBox="0 0 68 67">
        <path d="M66.9212 36.464L51.6667 27.6248C51.6659 24.8642 51.6633 22.1793 51.6591 19.5038C51.6557 16.6056 51.6523 13.7074 51.6523 10.7025C51.6523 10.7008 51.6523 10.6991 51.6523 10.6965C51.6523 10.6776 51.6523 10.6587 51.6523 10.6389C51.6523 10.0291 51.2344 9.51745 50.6721 9.38329L34.7704 0.170924C34.3797 -0.0561168 33.8998 -0.0569688 33.5091 0.168352L17.4868 9.3661C17.4121 9.40738 17.3407 9.45638 17.2762 9.51142C17.2227 9.55614 17.1751 9.60517 17.1301 9.65677C16.9373 9.88123 16.8218 10.1745 16.8201 10.4953C16.8201 10.4953 16.8201 10.4961 16.8201 10.4979C16.8201 10.4987 16.8201 10.4996 16.8201 10.5004C16.8201 13.6377 16.8286 16.5385 16.8371 19.4393C16.8439 22.1027 16.8515 24.7748 16.8524 27.6214L1.47385 36.4476C1.39656 36.4898 1.32437 36.5396 1.25812 36.5964C1.20801 36.6385 1.16215 36.685 1.11968 36.734C0.925174 36.9593 0.807973 37.2535 0.806274 37.576C0.806274 37.576 0.806274 37.5768 0.806274 37.5785C0.806274 37.5794 0.806274 37.5802 0.806274 37.5811V55.5784C0.806274 56.0428 1.05258 56.4719 1.45262 56.7007L17.7263 66.0404C17.9166 66.1539 18.1374 66.2193 18.3744 66.2193C18.6114 66.2193 18.8314 66.1539 19.0216 66.0412L34.5301 57.1643L49.9926 66.0404C50.1829 66.1539 50.4037 66.2193 50.6407 66.2193C50.8777 66.2193 51.0977 66.1539 51.2879 66.0404L67.2601 56.8985C67.6601 56.6698 67.9073 56.2406 67.9073 55.7754V37.7178C67.9048 37.109 67.4843 36.5973 66.9212 36.464ZM49.1118 19.5064C49.1152 22.1862 49.1186 24.8659 49.1195 27.6317L35.6597 35.6005V20.6038L49.1059 12.9093C49.1068 15.1393 49.1093 17.3228 49.1118 19.5064ZM34.136 2.77503L47.8021 10.6931L34.3865 18.3703L20.677 10.5022L34.136 2.77503ZM33.1116 20.6038V35.5696L19.4004 27.6257C19.3987 24.7714 19.3911 22.1028 19.3834 19.4333C19.3775 17.2291 19.3715 15.0249 19.369 12.7158L33.1116 20.6038ZM17.0987 62.7165L3.35264 54.8276V39.7956L17.0987 47.6844V62.7165ZM18.3735 45.451L4.66234 37.5828L18.123 29.8583L31.745 37.7995L18.3735 45.451ZM19.6467 47.6862L33.0743 40.002V55.0349L19.6467 62.7199V47.6862ZM49.3641 62.7165L35.6385 54.838V39.6245L49.3641 47.6775V62.7165ZM50.6458 45.4476L37.3355 37.6379L50.4012 29.8643L64.0529 37.7746L50.6458 45.4476ZM65.3567 55.0254L51.913 62.7199V47.6862L65.3567 39.9926V55.0254Z"/>
    </symbol>

    <symbol id="dynamics" viewBox="0 0 95 59" fill="none">
        <path d="M2.00046 56.9998L34.8115 24.6773C35.195 24.2995 35.8087 24.2931 36.2 24.6628L52.5054 40.0682C52.8899 40.4314 53.4908 40.4325 53.8765 40.0705L71.0005 23.9998" stroke-width="3"/>
        <path d="M64.0626 17.2238L82.2372 11.7468L77.8931 30.2249L64.0626 17.2238Z" stroke-width="3"/>
    </symbol>

    <symbol id="comfort" viewBox="0 0 72 72">
        <path d="M71.2869 51.01C71.234 50.9639 71.1696 50.9102 71.0975 50.8406C67.0637 47.0064 62.902 45.5319 58.725 46.464C58.0396 46.6166 57.557 46.8171 56.9417 47.2051L42.4379 56.362C42.0139 52.4469 39.1328 48.399 36.1286 47.1514L17.7409 42.2278L17.515 42.1628C16.8286 41.9604 16.1826 41.8427 15.2059 42.4576L0.829893 51.5345C0.633778 51.656 0.176181 51.9413 0.0367859 52.5524C-0.102609 53.1625 0.187715 53.6088 0.348259 53.8565L9.85116 68.9502C9.94537 69.1027 10.2328 69.5669 10.8625 69.7035C11.4893 69.84 11.9546 69.5368 12.119 69.4285C12.7669 69.0218 13.4158 68.6131 14.0619 68.2007C18.3696 68.5585 23.0331 69.3268 27.5438 70.0697C31.8881 70.7854 36.3795 71.5254 40.6219 71.9134L41.6304 71.9972C41.6678 71.9991 41.7044 72 41.7399 72C42.0764 72 42.3571 71.9171 42.6705 71.7232L70.9649 53.8574C71.3042 53.6437 71.9348 53.2454 71.9954 52.446C72.054 51.671 71.5359 51.2247 71.2869 51.01ZM2.3344 53.945L1.53648 52.768L2.44111 53.8649C2.40842 53.8941 2.37189 53.9205 2.3344 53.945ZM41.4294 69.146C41.2401 69.13 41.0535 69.115 40.8738 69.0999C36.7515 68.7242 32.313 67.9926 28.0206 67.2855C23.3859 66.5209 18.5936 65.7318 14.1147 65.3712C14.0224 65.3637 13.9359 65.3599 13.8542 65.3599C13.288 65.3599 12.9602 65.535 12.59 65.7685C12.268 65.9738 11.9459 66.1791 11.622 66.3834L3.3765 53.2868L16.7007 44.8737L35.0836 49.7878C37.3081 50.7765 39.5942 54.4318 39.6019 57.3507L22.0439 53.3885C21.2671 53.2134 20.4942 53.687 20.3144 54.4468C20.1347 55.2067 20.6192 55.9656 21.395 56.1408L40.4729 60.4457C40.8709 60.538 41.2718 60.4599 41.5919 60.2555L58.501 49.5798C58.8317 49.3717 59.0086 49.2973 59.3624 49.2182C62.3243 48.5572 65.2593 49.5242 68.3154 52.1691L41.4294 69.146Z"/>
        <path d="M27.2323 38.8692C27.6291 38.8692 28.0232 38.6995 28.2973 38.3713C32.4465 33.3939 39.6365 30.422 47.5306 30.422C55.4313 30.422 62.6222 33.3939 66.7668 38.3703C67.255 38.9568 68.128 39.0379 68.7159 38.5483C69.3038 38.0596 69.384 37.1873 68.894 36.6009C65.6141 32.6627 60.6879 29.8467 55.0261 28.518C59.7198 25.9315 62.9102 20.9311 62.9102 15.1958C62.9102 6.8169 56.105 0 47.7401 0C39.3725 0 32.5655 6.8169 32.5655 15.1958C32.5655 20.885 35.7079 25.8467 40.3416 28.4506C34.5543 29.7489 29.509 32.5926 26.1682 36.6009C25.6791 37.1882 25.7585 38.0605 26.3463 38.5492C26.6057 38.7641 26.9194 38.8692 27.2323 38.8692ZM35.335 15.1958C35.335 8.34202 40.9008 2.76623 47.7411 2.76623C54.5795 2.76623 60.1425 8.34202 60.1425 15.1958C60.1425 22.0496 54.5795 27.6254 47.7411 27.6254C40.9008 27.6263 35.335 22.0496 35.335 15.1958Z"/>
    </symbol>
    
    <symbol id="reliability" viewBox="0 0 55 69">   
        <path d="M53.4619 9.26234C52.9327 8.7364 52.2409 8.7364 51.8706 8.7364L51.1417 8.74359L50.7904 8.74C43.959 8.58563 36.7202 5.93885 29.2764 0.872384L29.0136 0.69198C28.4527 0.305151 28.0111 0 27.3708 0C26.7313 0 26.2978 0.30067 25.7478 0.681216L25.4525 0.884942C17.8822 6.03129 10.5279 8.67627 3.59167 8.74448L3.19609 8.74627C2.38957 8.74807 1.75194 8.74987 1.22179 9.28928C0.701579 9.81881 0.715135 10.4614 0.728682 11.0834C0.731392 11.2234 0.734994 11.3859 0.734994 11.5725V42.1957C0.734994 43.9584 0.82261 44.9035 1.65712 46.5577C6.72742 56.591 15.1087 64.1418 26.566 69H27.63C39.3384 64.0332 47.8407 56.6026 52.901 46.9131C53.6823 45.4151 54.0101 44.5032 54.0101 42.7316V11.3993C54.0128 10.4794 54.0137 9.81251 53.4619 9.26234ZM51.3016 42.7333C51.3016 43.9593 51.13 44.462 50.4978 45.6745C45.8113 54.6478 37.9403 61.5838 27.0989 66.2967C16.5194 61.6888 8.77577 54.6443 4.08028 45.3514C3.47697 44.155 3.44626 43.6075 3.44626 42.1966V11.5734C3.44626 11.5268 3.44626 11.481 3.44626 11.4379L3.62057 11.437C11.1023 11.3634 18.9624 8.56049 26.9833 3.1072L27.2985 2.89C27.3256 2.87115 27.3509 2.85409 27.3744 2.83704C27.4042 2.85768 27.4358 2.88012 27.4701 2.90346L27.7474 3.09374C35.631 8.45908 43.3638 11.2638 50.7299 11.4307C50.878 11.4343 51.0153 11.4352 51.1426 11.4352L51.3025 11.4334V42.7333H51.3016Z"/>
    </symbol>


    <symbol id="delete" viewBox="0 0 10 11" fill="none">
        <path d="M9.84101 2.82349H0.161785C0.0725243 2.82349 0 2.88088 0 2.95151V3.65784C0 3.72847 0.0725243 3.78586 0.161785 3.78586H1.01255L1.67643 9.99936C1.72664 10.4717 2.22594 10.8337 2.82287 10.8337H7.30544C7.91074 10.8337 8.41283 10.4629 8.45467 9.9839L8.98745 3.78586H9.83821C9.92748 3.78586 10 3.72847 10 3.65784V2.95151C10 2.87867 9.92748 2.82349 9.84101 2.82349Z" fill="#E9862A"/>
        <path d="M9.84101 1.31775H6.68898C6.68898 1.30671 6.69177 1.29347 6.69177 1.28243V0.896156C6.69177 0.401725 6.1841 0 5.55928 0H4.44351C3.81869 0 3.31102 0.401725 3.31102 0.896156V1.28243C3.31102 1.29347 3.31381 1.30671 3.31381 1.31775H2.33194H0.161785C0.0725243 1.31775 0 1.37514 0 1.44577V2.1521C0 2.22273 0.0725243 2.28012 0.161785 2.28012H9.83821C9.92748 2.28012 10 2.22273 10 2.1521V1.44577C10 1.37293 9.92748 1.31775 9.84101 1.31775ZM4.27336 0.896156C4.27336 0.821109 4.35146 0.759305 4.4463 0.759305H5.55928C5.65412 0.759305 5.73222 0.821109 5.73222 0.896156V1.28243C5.73222 1.29567 5.72664 1.30671 5.72385 1.31775H4.28452C4.28173 1.30671 4.27615 1.29567 4.27615 1.28243V0.896156H4.27336Z" fill="#E9862A"/>
    </symbol>


</svg>
